<?xml version="1.0" encoding="utf-8"?>
<svg version="1.1" xmlns:xlink="http://www.w3.org/1999/xlink" width="25px" height="28px" xmlns="http://www.w3.org/2000/svg">
  <g transform="matrix(1 0 0 1 -31 -207 )">
    <path d="M 19.397941468254 25.891015625  C 21.5293278769841 24.7516927083333  23.2796482308201 23.20546875  24.6489025297619 21.25234375  C 24.3647176752646 19.2341145833333  23.7995773396164 17.5576822916667  22.9534815228175 16.223046875  C 22.1073857060185 14.8884114583333  20.9157469411375 14.1169270833333  19.3785652281746 13.90859375  C 18.5130931712963 14.8721354166667  17.4829230737434 15.6240885416667  16.2880549355159 16.164453125  C 15.0931867972884 16.7048177083333  13.8305018187831 16.975  12.5 16.975  C 11.1694981812169 16.975  9.90681320271165 16.7048177083333  8.71194506448413 16.164453125  C 7.51707692625663 15.6240885416667  6.48690682870372 14.8721354166667  5.6214347718254 13.90859375  C 4.08425305886245 14.1169270833333  2.89261429398147 14.8884114583333  2.04651847718253 16.223046875  C 1.20042266038359 17.5576822916667  0.635282324735442 19.2341145833333  0.351097470238102 21.25234375  C 1.72035176917987 23.20546875  3.47067212301587 24.7516927083333  5.60205853174603 25.891015625  C 7.7334449404762 27.0303385416667  10.0327587632275 27.6  12.5 27.6  C 14.9672412367725 27.6  17.2665550595238 27.0303385416667  19.397941468254 25.891015625  Z M 17.7606491815476 12.902734375  C 19.2138671875 11.437890625  19.9404761904762 9.67031250000002  19.9404761904762 7.59999999999997  C 19.9404761904762 5.52968749999997  19.2138671875 3.76210937499997  17.7606491815476 2.29726562500002  C 16.3074311755952 0.832421874999966  14.5538814484127 0.100000000000023  12.5 0.100000000000023  C 10.4461185515873 0.100000000000023  8.69256882440477 0.832421874999966  7.23935081845241 2.29726562500002  C 5.7861328125 3.76210937499997  5.0595238095238 5.52968749999997  5.0595238095238 7.59999999999997  C 5.0595238095238 9.67031250000002  5.7861328125 11.437890625  7.23935081845241 12.902734375  C 8.69256882440477 14.367578125  10.4461185515873 15.1  12.5 15.1  C 14.5538814484127 15.1  16.3074311755952 14.367578125  17.7606491815476 12.902734375  Z " fill-rule="nonzero" fill="#ffffff" stroke="none" transform="matrix(1 0 0 1 31 207 )" />
  </g>
</svg>