<?xml version="1.0" encoding="utf-8"?><svg version="1.1" xmlns:xlink="http://www.w3.org/1999/xlink" width="73px" height="20px" xmlns="http://www.w3.org/2000/svg"><g transform="matrix(1 0 0 1 -136 -98 )"><path d="M 143.8382660449 98.5  C 143.8382660449 98.5  142.272671080434 98.7144650636254  142.272671080434 98.7144650636254  C 142.272671080434 98.7144650636254  136.544411499967 108  136.544411499967 108  C 136.544411499967 108  142.272671080434 117.285534936375  142.272671080434 117.285534936375  C 142.272671080434 117.285534936375  143.8382660449 117.5  143.8382660449 117.5  C 143.8382660449 117.5  208.5 117.5  208.5 117.5  C 208.5 117.5  208.5 98.5  208.5 98.5  C 208.5 98.5  143.8382660449 98.5  143.8382660449 98.5  Z " fill-rule="nonzero" fill="#f2f2f2" stroke="none" /><path d="M 143.8382660449 98.5  C 143.8382660449 98.5  142.272671080434 98.7144650636254  142.272671080434 98.7144650636254  C 142.272671080434 98.7144650636254  136.544411499967 108  136.544411499967 108  C 136.544411499967 108  142.272671080434 117.285534936375  142.272671080434 117.285534936375  C 142.272671080434 117.285534936375  143.8382660449 117.5  143.8382660449 117.5  C 143.8382660449 117.5  208.5 117.5  208.5 117.5  C 208.5 117.5  208.5 98.5  208.5 98.5  C 208.5 98.5  143.8382660449 98.5  143.8382660449 98.5  Z " stroke-width="1" stroke="#e4e4e4" fill="none" /></g></svg>