<?xml version="1.0" encoding="utf-8"?><svg version="1.1" xmlns:xlink="http://www.w3.org/1999/xlink" width="50px" height="20px" xmlns="http://www.w3.org/2000/svg"><g transform="matrix(1 0 0 1 -219 -198 )"><path d="M 226.95967477525 198.5  C 226.95967477525 198.5  225.289604898275 198.834013975395  225.289604898275 198.834013975395  C 225.289604898275 198.834013975395  219.560863632897 208  219.560863632897 208  C 219.560863632897 208  225.289604898275 217.165986024605  225.289604898275 217.165986024605  C 225.289604898275 217.165986024605  226.95967477525 217.5  226.95967477525 217.5  C 226.95967477525 217.5  268.5 217.5  268.5 217.5  C 268.5 217.5  268.5 198.5  268.5 198.5  C 268.5 198.5  226.95967477525 198.5  226.95967477525 198.5  Z " fill-rule="nonzero" fill="#f2f2f2" stroke="none" /><path d="M 226.95967477525 198.5  C 226.95967477525 198.5  225.289604898275 198.834013975395  225.289604898275 198.834013975395  C 225.289604898275 198.834013975395  219.560863632897 208  219.560863632897 208  C 219.560863632897 208  225.289604898275 217.165986024605  225.289604898275 217.165986024605  C 225.289604898275 217.165986024605  226.95967477525 217.5  226.95967477525 217.5  C 226.95967477525 217.5  268.5 217.5  268.5 217.5  C 268.5 217.5  268.5 198.5  268.5 198.5  C 268.5 198.5  226.95967477525 198.5  226.95967477525 198.5  Z " stroke-width="1" stroke="#e4e4e4" fill="none" /></g></svg>