<?xml version="1.0" encoding="utf-8"?>
<svg version="1.1" xmlns:xlink="http://www.w3.org/1999/xlink" width="90px" height="90px" xmlns="http://www.w3.org/2000/svg">
  <defs>
    <filter x="143px" y="149px" width="90px" height="90px" filterUnits="userSpaceOnUse" id="filter301">
      <feOffset dx="0" dy="5" in="SourceAlpha" result="shadowOffsetInner" />
      <feGaussianBlur stdDeviation="2.5" in="shadowOffsetInner" result="shadowGaussian" />
      <feComposite in2="shadowGaussian" operator="atop" in="SourceAlpha" result="shadowComposite" />
      <feColorMatrix type="matrix" values="0 0 0 0 0  0 0 0 0 0  0 0 0 0 0  0 0 0 0.2 0  " in="shadowComposite" />
    </filter>
    <g id="widget302">
      <path d="M 188 150  C 209.84 150  227 167.16  227 189  C 227 210.84  209.84 228  188 228  C 166.16 228  149 210.84  149 189  C 149 167.16  166.16 150  188 150  Z " fill-rule="nonzero" fill="#666666" stroke="none" />
      <path d="M 188 150  C 209.84 150  227 167.16  227 189  C 227 210.84  209.84 228  188 228  C 166.16 228  149 210.84  149 189  C 149 167.16  166.16 150  188 150  Z " stroke-width="2" stroke="#999999" fill="none" />
    </g>
  </defs>
  <g transform="matrix(1 0 0 1 -143 -149 )">
    <use xlink:href="#widget302" filter="url(#filter301)" />
    <use xlink:href="#widget302" />
  </g>
</svg>