<?xml version="1.0" encoding="utf-8"?>
<svg version="1.1" xmlns:xlink="http://www.w3.org/1999/xlink" width="163px" height="50px" xmlns="http://www.w3.org/2000/svg">
  <defs>
    <mask fill="white" id="clip219">
      <path d="M 5.00000000000001 50  C 2.23857625084606 50  0 47.7614237491539  0 45  L 0 5  C 0 2.23857625084602  2.23857625084606 0  5.00000000000001 0  L 150.239852398524 0  C 153.001276147678 0  155.239852398524 2.23857625084602  155 5  L 155 16.5295097569706  L 163 25.0714285714286  L 155 32.5295097569706  L 155 45  C 155.239852398524 47.7614237491539  153.001276147678 50  150.239852398524 50  L 5.00000000000001 50  Z " fill-rule="evenodd" />
    </mask>
  </defs>
  <g transform="matrix(1 0 0 1 -152 -74 )">
    <path d="M 5.00000000000001 50  C 2.23857625084606 50  0 47.7614237491539  0 45  L 0 5  C 0 2.23857625084602  2.23857625084606 0  5.00000000000001 0  L 150.239852398524 0  C 153.001276147678 0  155.239852398524 2.23857625084602  155 5  L 155 16.5295097569706  L 163 25.0714285714286  L 155 32.5295097569706  L 155 45  C 155.239852398524 47.7614237491539  153.001276147678 50  150.239852398524 50  L 5.00000000000001 50  Z " fill-rule="nonzero" fill="#ffffff" stroke="none" transform="matrix(1 0 0 1 152 74 )" />
    <path d="M 5.00000000000001 50  C 2.23857625084606 50  0 47.7614237491539  0 45  L 0 5  C 0 2.23857625084602  2.23857625084606 0  5.00000000000001 0  L 150.239852398524 0  C 153.001276147678 0  155.239852398524 2.23857625084602  155 5  L 155 16.5295097569706  L 163 25.0714285714286  L 155 32.5295097569706  L 155 45  C 155.239852398524 47.7614237491539  153.001276147678 50  150.239852398524 50  L 5.00000000000001 50  Z " stroke-width="2" stroke="#d7d7d7" fill="none" transform="matrix(1 0 0 1 152 74 )" mask="url(#clip219)" />
  </g>
</svg>