<?xml version="1.0" encoding="utf-8"?>
<svg version="1.1" xmlns:xlink="http://www.w3.org/1999/xlink" width="215px" height="65px" xmlns="http://www.w3.org/2000/svg">
  <defs>
    <mask fill="white" id="clip304">
      <path d="M 210 65  C 212.761423749154 65  215 62.761423749154  215 60  L 215 5  C 215 2.23857625084605  212.761423749154 0  210 0  L 12 0  C 9.2385762508461 0  7 2.23857625084605  7 5  L 7 17.000040128442  L 0 24.0000797959444  L 7 31.0002069166973  L 7 60  C 7 62.761423749154  9.2385762508461 65  12 65  L 210 65  Z " fill-rule="evenodd" />
    </mask>
  </defs>
  <g transform="matrix(1 0 0 1 -60 -154 )">
    <path d="M 210 65  C 212.761423749154 65  215 62.761423749154  215 60  L 215 5  C 215 2.23857625084605  212.761423749154 0  210 0  L 12 0  C 9.2385762508461 0  7 2.23857625084605  7 5  L 7 17.000040128442  L 0 24.0000797959444  L 7 31.0002069166973  L 7 60  C 7 62.761423749154  9.2385762508461 65  12 65  L 210 65  Z " fill-rule="nonzero" fill="#ffffff" stroke="none" transform="matrix(1 0 0 1 60 154 )" />
    <path d="M 210 65  C 212.761423749154 65  215 62.761423749154  215 60  L 215 5  C 215 2.23857625084605  212.761423749154 0  210 0  L 12 0  C 9.2385762508461 0  7 2.23857625084605  7 5  L 7 17.000040128442  L 0 24.0000797959444  L 7 31.0002069166973  L 7 60  C 7 62.761423749154  9.2385762508461 65  12 65  L 210 65  Z " stroke-width="2" stroke="#d7d7d7" fill="none" transform="matrix(1 0 0 1 60 154 )" mask="url(#clip304)" />
  </g>
</svg>