<?xml version="1.0" encoding="utf-8"?>
<svg version="1.1" xmlns:xlink="http://www.w3.org/1999/xlink" width="120px" height="155px" xmlns="http://www.w3.org/2000/svg">
  <defs>
    <mask fill="white" id="clip305">
      <path d="M 5 155  C 2.23857625084605 155  0 153.761423749154  0 151  L 0 6  C 0 3.23857625084602  2.23857625084605 1  5 1  L 114.239852398524 0  C 117.001276147678 0  119.239852398524 2.23857625084602  119.239852398524 5  L 119.239852398524 150  C 119.239852398524 152.761423749154  117.001276147678 155  114.239852398524 155  L 5 155  Z " fill-rule="evenodd" />
    </mask>
  </defs>
  <g transform="matrix(1 0 0 1 -188 -249 )">
    <path d="M 5 155  C 2.23857625084605 155  0 153.761423749154  0 151  L 0 6  C 0 3.23857625084602  2.23857625084605 1  5 1  L 114.239852398524 0  C 117.001276147678 0  119.239852398524 2.23857625084602  119.239852398524 5  L 119.239852398524 150  C 119.239852398524 152.761423749154  117.001276147678 155  114.239852398524 155  L 5 155  Z " fill-rule="nonzero" fill="#ffffff" stroke="none" transform="matrix(1 0 0 1 188 249 )" />
    <path d="M 5 155  C 2.23857625084605 155  0 153.761423749154  0 151  L 0 6  C 0 3.23857625084602  2.23857625084605 1  5 1  L 114.239852398524 0  C 117.001276147678 0  119.239852398524 2.23857625084602  119.239852398524 5  L 119.239852398524 150  C 119.239852398524 152.761423749154  117.001276147678 155  114.239852398524 155  L 5 155  Z " stroke-width="2" stroke="#d7d7d7" fill="none" transform="matrix(1 0 0 1 188 249 )" mask="url(#clip305)" />
  </g>
</svg>