<?xml version="1.0" encoding="utf-8"?>
<svg version="1.1" xmlns:xlink="http://www.w3.org/1999/xlink" width="163px" height="65px" xmlns="http://www.w3.org/2000/svg">
  <defs>
    <mask fill="white" id="clip309">
      <path d="M 158 65  C 160.761423749154 65  163 62.7614237491539  163 60  L 163 5  C 163 2.23857625084602  160.761423749154 0  158 0  L 12.760147601476 0  C 9.99872385232197 0  7.76014760147597 2.23857625084602  8 5  L 8 16.5295097569706  L 0 25.0714285714286  L 8 32.5295097569706  L 8 60  C 7.76014760147597 62.7614237491539  9.99872385232197 65  12.760147601476 65  L 158 65  Z " fill-rule="evenodd" />
    </mask>
  </defs>
  <g transform="matrix(1 0 0 1 -60 -134 )">
    <path d="M 158 65  C 160.761423749154 65  163 62.7614237491539  163 60  L 163 5  C 163 2.23857625084602  160.761423749154 0  158 0  L 12.760147601476 0  C 9.99872385232197 0  7.76014760147597 2.23857625084602  8 5  L 8 16.5295097569706  L 0 25.0714285714286  L 8 32.5295097569706  L 8 60  C 7.76014760147597 62.7614237491539  9.99872385232197 65  12.760147601476 65  L 158 65  Z " fill-rule="nonzero" fill="#ffffff" stroke="none" transform="matrix(1 0 0 1 60 134 )" />
    <path d="M 158 65  C 160.761423749154 65  163 62.7614237491539  163 60  L 163 5  C 163 2.23857625084602  160.761423749154 0  158 0  L 12.760147601476 0  C 9.99872385232197 0  7.76014760147597 2.23857625084602  8 5  L 8 16.5295097569706  L 0 25.0714285714286  L 8 32.5295097569706  L 8 60  C 7.76014760147597 62.7614237491539  9.99872385232197 65  12.760147601476 65  L 158 65  Z " stroke-width="2" stroke="#d7d7d7" fill="none" transform="matrix(1 0 0 1 60 134 )" mask="url(#clip309)" />
  </g>
</svg>