<?xml version="1.0" encoding="utf-8"?>
<svg version="1.1" xmlns:xlink="http://www.w3.org/1999/xlink" width="215px" height="65px" xmlns="http://www.w3.org/2000/svg">
  <defs>
    <mask fill="white" id="clip226">
      <path d="M 5.00000000000001 65  C 2.2385762508461 65  0 62.761423749154  0 60  L 0 5  C 0 2.23857625084605  2.2385762508461 0  5.00000000000001 0  L 203 0  C 205.761423749154 0  208 2.23857625084605  208 5  L 208 17.000040128442  L 215 24.0000797959444  L 208 31.0002069166973  L 208 60  C 208 62.761423749154  205.761423749154 65  203 65  L 5.00000000000001 65  Z " fill-rule="evenodd" />
    </mask>
  </defs>
  <g transform="matrix(1 0 0 1 -100 -239 )">
    <path d="M 5.00000000000001 65  C 2.2385762508461 65  0 62.761423749154  0 60  L 0 5  C 0 2.23857625084605  2.2385762508461 0  5.00000000000001 0  L 203 0  C 205.761423749154 0  208 2.23857625084605  208 5  L 208 17.000040128442  L 215 24.0000797959444  L 208 31.0002069166973  L 208 60  C 208 62.761423749154  205.761423749154 65  203 65  L 5.00000000000001 65  Z " fill-rule="nonzero" fill="#ffffff" stroke="none" transform="matrix(1 0 0 1 100 239 )" />
    <path d="M 5.00000000000001 65  C 2.2385762508461 65  0 62.761423749154  0 60  L 0 5  C 0 2.23857625084605  2.2385762508461 0  5.00000000000001 0  L 203 0  C 205.761423749154 0  208 2.23857625084605  208 5  L 208 17.000040128442  L 215 24.0000797959444  L 208 31.0002069166973  L 208 60  C 208 62.761423749154  205.761423749154 65  203 65  L 5.00000000000001 65  Z " stroke-width="2" stroke="#d7d7d7" fill="none" transform="matrix(1 0 0 1 100 239 )" mask="url(#clip226)" />
  </g>
</svg>